# xmcd CD database file
#
# Track frame offsets:
#	150
#	3837
#	7987
#	13950
#	21400
#	28325
#	31987
#	35250
#	39087
#	45762
#	53512
#	57762
#	66000
#	68925
#	72250
#	75412
#	80737
#	86025
#	90500
#	95425
#	99525
#	103437
#	109275
#	114850
#	119887
#	123500
#	127275
#	131887
#	137887
#	142237
#	148737
#	153637
#	157550
#	162750
#	167812
#	174262
#	180162
#	184225
#	188775
#	193725
#	199537
#	206287
#	211700
#	216325
#	220387
#	224162
#	229650
#	235350
#	243150
#	246800
#	250587
#	256425
#	261387
#	270312
#	277250
#	283775
#	289475
#	296137
#	302750
#	307387
#	312700
#	319325
#	326150
#
# Disc length: 4470 seconds
#
# Revision: 0
# Processed by: cddbd v1.5.1PL0 Copyright (c) Steve Scherf et al.
# Submitted via: CDex 1.50beta9
#
DISCID=c311743f
DTITLE=PONS - Italienisch - Powerkurs für Anfänger
DYEAR=2002
DGENRE=Hörbuch
TTITLE0=1a Dialog
TTITLE1=1b Dialog
TTITLE2=1 Übungen
TTITLE3=1a Wortschatz
TTITLE4=1b Wortschatz
TTITLE5=2a Dialog
TTITLE6=2b Dialog
TTITLE7=2c Dialog
TTITLE8=2 Übung
TTITLE9=2a Wortschatz
TTITLE10=2b Wortschatz
TTITLE11=2c Wortschatz
TTITLE12=3a Dialog
TTITLE13=3b Dialog
TTITLE14=3c Dialog
TTITLE15=3 Übungen
TTITLE16=3a Wortschatz
TTITLE17=3b Wortschatz
TTITLE18=3c Wortschatz
TTITLE19=4a Dialog
TTITLE20=4b Dialog
TTITLE21=4 Übung
TTITLE22=4a Wortschatz
TTITLE23=4b Wortschatz
TTITLE24=5a Dialog
TTITLE25=5b Dialog
TTITLE26=5c Dialog
TTITLE27=5 Übung
TTITLE28=5a Wortschatz
TTITLE29=5b Wortschatz
TTITLE30=5c Wortschatz
TTITLE31=6a Dialog
TTITLE32=6b Dialog
TTITLE33=6 Übung
TTITLE34=6a Wortschatz
TTITLE35=6b Wortschatz
TTITLE36=7a Dialog
TTITLE37=7b Dialog
TTITLE38=7c Dialog
TTITLE39=7 Übung
TTITLE40=7a Wortschatz
TTITLE41=7b Wortschatz
TTITLE42=7c Wortschatz
TTITLE43=8a Dialog
TTITLE44=8b Dialog
TTITLE45=8c Dialog
TTITLE46=8 Übungen
TTITLE47=8a Wortschatz
TTITLE48=8b Wortschatz
TTITLE49=8c Wortschatz
TTITLE50=9a Dialog
TTITLE51=9b Dialog
TTITLE52=9c Dialog
TTITLE53=9 Übung
TTITLE54=9a Wortschatz
TTITLE55=9b Wortschatz
TTITLE56=9c Wortschatz
TTITLE57=10a Dialog
TTITLE58=10b Dialog
TTITLE59=10c Dialog
TTITLE60=10a Wortschatz
TTITLE61=10b Wortschatz
TTITLE62=10c Wortschatz
EXTD=YEAR: 2002
EXTT0=
EXTT1=
EXTT2=
EXTT3=
EXTT4=
EXTT5=
EXTT6=
EXTT7=
EXTT8=
EXTT9=
EXTT10=
EXTT11=
EXTT12=
EXTT13=
EXTT14=
EXTT15=
EXTT16=
EXTT17=
EXTT18=
EXTT19=
EXTT20=
EXTT21=
EXTT22=
EXTT23=
EXTT24=
EXTT25=
EXTT26=
EXTT27=
EXTT28=
EXTT29=
EXTT30=
EXTT31=
EXTT32=
EXTT33=
EXTT34=
EXTT35=
EXTT36=
EXTT37=
EXTT38=
EXTT39=
EXTT40=
EXTT41=
EXTT42=
EXTT43=
EXTT44=
EXTT45=
EXTT46=
EXTT47=
EXTT48=
EXTT49=
EXTT50=
EXTT51=
EXTT52=
EXTT53=
EXTT54=
EXTT55=
EXTT56=
EXTT57=
EXTT58=
EXTT59=
EXTT60=
EXTT61=
EXTT62=
PLAYORDER=
